<svg width="196" height="74" viewBox="0 0 196 74" fill="none" xmlns="http://www.w3.org/2000/svg">
<path d="M110.962 33.4079C109.285 35.136 107.211 36 104.739 36C102.267 36 100.193 35.136 98.5158 33.4079C96.8386 31.6799 96 29.5425 96 26.9959C96 24.472 96.8386 22.3461 98.5158 20.618C100.215 18.8672 102.29 17.9918 104.739 17.9918C107.189 17.9918 109.263 18.8672 110.962 20.618C112.662 22.3688 113.511 24.4948 113.511 26.9959C113.511 29.5198 112.662 31.6571 110.962 33.4079ZM101.528 30.3724C102.389 31.2592 103.459 31.7026 104.739 31.7026C106.019 31.7026 107.089 31.2592 107.95 30.3724C108.811 29.4857 109.241 28.3602 109.241 26.9959C109.241 25.6317 108.811 24.5061 107.95 23.6194C107.089 22.7326 106.019 22.2892 104.739 22.2892C103.459 22.2892 102.389 22.7326 101.528 23.6194C100.69 24.5289 100.27 25.6544 100.27 26.9959C100.27 28.3374 100.69 29.4629 101.528 30.3724Z" fill="white"/>
<path d="M125.718 17.9918C127.55 17.9918 129.039 18.6171 130.187 19.8677C131.378 21.141 131.974 22.869 131.974 25.0518V35.5225H127.704V25.5975C127.704 24.4834 127.406 23.6194 126.81 23.0055C126.237 22.3915 125.442 22.0846 124.427 22.0846C123.301 22.0846 122.408 22.4484 121.746 23.176C121.106 23.8809 120.786 24.9268 120.786 26.3138V35.5225H116.515V18.4693H120.786V20.3793C121.801 18.7876 123.445 17.9918 125.718 17.9918Z" fill="white"/>
<path d="M139.56 23.3124C139.56 24.04 140.564 24.6653 142.572 25.1883C143.278 25.3474 143.918 25.5407 144.492 25.7681C145.066 25.9727 145.64 26.2797 146.213 26.689C146.809 27.0755 147.273 27.5985 147.604 28.2578C147.935 28.9172 148.1 29.6789 148.1 30.543C148.1 32.2938 147.46 33.6467 146.18 34.6016C144.9 35.5339 143.322 36 141.447 36C138.048 36 135.731 34.6471 134.495 31.9413L138.203 29.7926C138.71 31.2706 139.791 32.0096 141.447 32.0096C142.969 32.0096 143.731 31.5207 143.731 30.543C143.731 29.8154 142.727 29.1901 140.718 28.6671C139.968 28.4625 139.328 28.2578 138.798 28.0532C138.269 27.8486 137.695 27.553 137.077 27.1664C136.459 26.7572 135.985 26.2456 135.654 25.6317C135.345 24.995 135.19 24.256 135.19 23.4147C135.19 21.7322 135.786 20.4134 136.978 19.4584C138.191 18.4807 139.692 17.9918 141.48 17.9918C142.826 17.9918 144.051 18.3101 145.154 18.9468C146.257 19.5607 147.129 20.4475 147.769 21.6071L144.128 23.6535C143.598 22.4939 142.716 21.9141 141.48 21.9141C140.928 21.9141 140.465 22.0505 140.089 22.3233C139.736 22.5734 139.56 22.9031 139.56 23.3124Z" fill="white"/>
<path d="M152.965 16.4229C152.259 16.4229 151.641 16.1614 151.111 15.6385C150.604 15.0928 150.35 14.4561 150.35 13.7285C150.35 13.0009 150.604 12.3643 151.111 11.8186C151.641 11.2729 152.259 11 152.965 11C153.693 11 154.311 11.2729 154.819 11.8186C155.348 12.3643 155.613 13.0009 155.613 13.7285C155.613 14.4561 155.348 15.0928 154.819 15.6385C154.311 16.1614 153.693 16.4229 152.965 16.4229ZM155.117 35.5225H150.846V18.4693H155.117V35.5225Z" fill="white"/>
<path d="M171.571 20.4816V11.648H175.841V35.5225H171.571V33.5102C170.313 35.1701 168.526 36 166.208 36C163.979 36 162.071 35.136 160.482 33.4079C158.915 31.6571 158.131 29.5198 158.131 26.9959C158.131 24.4948 158.915 22.3688 160.482 20.618C162.071 18.8672 163.979 17.9918 166.208 17.9918C168.526 17.9918 170.313 18.8217 171.571 20.4816ZM163.693 30.4748C164.597 31.3615 165.701 31.8049 167.003 31.8049C168.327 31.8049 169.419 31.3615 170.28 30.4748C171.141 29.5653 171.571 28.4056 171.571 26.9959C171.571 25.5862 171.141 24.4379 170.28 23.5512C169.419 22.6417 168.327 22.1869 167.003 22.1869C165.679 22.1869 164.575 22.6417 163.693 23.5512C162.832 24.4379 162.402 25.5862 162.402 26.9959C162.402 28.4056 162.832 29.5653 163.693 30.4748Z" fill="white"/>
<path d="M195.834 28.8035H183.355C183.907 30.9409 185.462 32.0096 188.022 32.0096C189.655 32.0096 190.891 31.4411 191.73 30.3042L195.172 32.3506C193.539 34.7835 191.134 36 187.956 36C185.22 36 183.024 35.1473 181.369 33.442C179.714 31.7367 178.886 29.588 178.886 26.9959C178.886 24.4493 179.702 22.312 181.336 20.5839C182.947 18.8558 185.043 17.9918 187.625 17.9918C190.075 17.9918 192.072 18.8558 193.617 20.5839C195.206 22.312 196 24.4493 196 26.9959C196 27.4734 195.945 28.0759 195.834 28.8035ZM183.289 25.3929H191.73C191.487 24.2788 190.99 23.4261 190.24 22.8349C189.512 22.2437 188.64 21.9482 187.625 21.9482C186.477 21.9482 185.529 22.2551 184.778 22.869C184.028 23.4602 183.531 24.3015 183.289 25.3929Z" fill="white"/>
<path d="M98.8267 59.1349C98.4384 59.1349 98.1046 58.9976 97.8253 58.723C97.5459 58.4437 97.4062 58.1075 97.4062 57.7145C97.4062 57.3262 97.5459 56.9948 97.8253 56.7202C98.1046 56.4408 98.4384 56.3011 98.8267 56.3011C99.215 56.3011 99.5488 56.4408 99.8281 56.7202C100.107 56.9948 100.247 57.3262 100.247 57.7145C100.247 57.9749 100.181 58.214 100.048 58.4318C99.9205 58.6449 99.75 58.8153 99.5369 58.9432C99.3239 59.071 99.0871 59.1349 98.8267 59.1349ZM111.266 50.7543L109.342 51.0952C109.261 50.849 109.133 50.6146 108.958 50.392C108.788 50.1695 108.556 49.9872 108.262 49.8452C107.969 49.7031 107.602 49.6321 107.161 49.6321C106.56 49.6321 106.058 49.767 105.656 50.0369C105.253 50.3021 105.052 50.6454 105.052 51.0668C105.052 51.4313 105.187 51.7249 105.457 51.9474C105.727 52.17 106.162 52.3523 106.763 52.4943L108.496 52.892C109.5 53.1241 110.248 53.4815 110.741 53.9645C111.233 54.4474 111.479 55.0748 111.479 55.8466C111.479 56.5 111.29 57.0824 110.911 57.5938C110.537 58.1004 110.014 58.4981 109.342 58.7869C108.674 59.0758 107.9 59.2202 107.019 59.2202C105.798 59.2202 104.801 58.9598 104.029 58.4389C103.257 57.9134 102.784 57.1676 102.609 56.2017L104.661 55.8892C104.789 56.4242 105.052 56.8291 105.45 57.1037C105.847 57.3736 106.366 57.5085 107.005 57.5085C107.701 57.5085 108.257 57.3641 108.674 57.0753C109.091 56.7817 109.299 56.4242 109.299 56.0028C109.299 55.6619 109.171 55.3755 108.915 55.1435C108.665 54.9115 108.279 54.7363 107.758 54.6179L105.911 54.2131C104.893 53.9811 104.14 53.6117 103.653 53.1051C103.17 52.5985 102.928 51.9569 102.928 51.1804C102.928 50.5365 103.108 49.973 103.468 49.4901C103.828 49.0071 104.325 48.6307 104.96 48.3608C105.594 48.0862 106.321 47.9489 107.14 47.9489C108.319 47.9489 109.247 48.2045 109.924 48.7159C110.601 49.2225 111.049 49.902 111.266 50.7543ZM118.409 59.2202C117.387 59.2202 116.494 58.9858 115.732 58.517C114.97 58.0483 114.378 57.3925 113.956 56.5497C113.535 55.7069 113.324 54.7221 113.324 53.5952C113.324 52.4635 113.535 51.474 113.956 50.6264C114.378 49.7789 114.97 49.1207 115.732 48.652C116.494 48.1832 117.387 47.9489 118.409 47.9489C119.432 47.9489 120.325 48.1832 121.087 48.652C121.849 49.1207 122.441 49.7789 122.863 50.6264C123.284 51.474 123.495 52.4635 123.495 53.5952C123.495 54.7221 123.284 55.7069 122.863 56.5497C122.441 57.3925 121.849 58.0483 121.087 58.517C120.325 58.9858 119.432 59.2202 118.409 59.2202ZM118.417 57.4375C119.079 57.4375 119.629 57.2623 120.064 56.9119C120.5 56.5616 120.822 56.0952 121.03 55.5128C121.243 54.9304 121.35 54.2888 121.35 53.5881C121.35 52.892 121.243 52.2528 121.03 51.6705C120.822 51.0833 120.5 50.6122 120.064 50.2571C119.629 49.902 119.079 49.7244 118.417 49.7244C117.749 49.7244 117.195 49.902 116.755 50.2571C116.319 50.6122 115.995 51.0833 115.782 51.6705C115.573 52.2528 115.469 52.892 115.469 53.5881C115.469 54.2888 115.573 54.9304 115.782 55.5128C115.995 56.0952 116.319 56.5616 116.755 56.9119C117.195 57.2623 117.749 57.4375 118.417 57.4375ZM131.057 48.0909V49.7955H124.892V48.0909H131.057ZM126.582 59V46.8267C126.582 46.1449 126.732 45.5791 127.03 45.1293C127.328 44.6747 127.723 44.3362 128.216 44.1136C128.708 43.8864 129.243 43.7727 129.821 43.7727C130.247 43.7727 130.612 43.8082 130.915 43.8793C131.218 43.9455 131.443 44.0071 131.589 44.0639L131.092 45.7827C130.993 45.7543 130.865 45.7211 130.709 45.6832C130.553 45.6406 130.363 45.6193 130.141 45.6193C129.625 45.6193 129.255 45.7472 129.033 46.0028C128.815 46.2585 128.706 46.6278 128.706 47.1108V59H126.582ZM138.34 48.0909V49.7955H132.381V48.0909H138.34ZM133.979 45.4773H136.103V55.7969C136.103 56.2088 136.165 56.5189 136.288 56.7273C136.411 56.9309 136.569 57.0705 136.763 57.1463C136.962 57.2173 137.178 57.2528 137.41 57.2528C137.58 57.2528 137.729 57.241 137.857 57.2173C137.985 57.1937 138.085 57.1747 138.156 57.1605L138.539 58.9148C138.416 58.9621 138.241 59.0095 138.013 59.0568C137.786 59.1089 137.502 59.1373 137.161 59.142C136.603 59.1515 136.082 59.0521 135.599 58.8438C135.116 58.6354 134.725 58.3134 134.427 57.8778C134.129 57.4422 133.979 56.8954 133.979 56.2372V45.4773ZM143.054 59L139.844 48.0909H142.039L144.176 56.1023H144.283L146.428 48.0909H148.623L150.753 56.0668H150.86L152.983 48.0909H155.178L151.975 59H149.809L147.593 51.1236H147.429L145.213 59H143.054ZM160.368 59.2415C159.677 59.2415 159.052 59.1136 158.493 58.858C157.934 58.5975 157.491 58.2211 157.165 57.7287C156.843 57.2363 156.682 56.6326 156.682 55.9176C156.682 55.3021 156.8 54.7955 157.037 54.3977C157.274 54 157.593 53.6851 157.996 53.4531C158.398 53.2211 158.848 53.0459 159.345 52.9276C159.842 52.8092 160.349 52.7192 160.865 52.6577C161.518 52.5819 162.049 52.5204 162.456 52.473C162.863 52.4209 163.159 52.3381 163.344 52.2244C163.528 52.1108 163.621 51.9261 163.621 51.6705V51.6207C163.621 51.0005 163.446 50.5199 163.095 50.179C162.75 49.8381 162.233 49.6676 161.547 49.6676C160.832 49.6676 160.268 49.8262 159.857 50.1435C159.449 50.456 159.168 50.804 159.011 51.1875L157.016 50.733C157.252 50.0701 157.598 49.535 158.053 49.1278C158.512 48.7159 159.04 48.4176 159.636 48.233C160.233 48.0436 160.86 47.9489 161.518 47.9489C161.954 47.9489 162.416 48.0009 162.903 48.1051C163.396 48.2045 163.855 48.3892 164.281 48.6591C164.712 48.929 165.065 49.3149 165.339 49.8168C165.614 50.3139 165.751 50.9602 165.751 51.7557V59H163.678V57.5085H163.592C163.455 57.7831 163.249 58.053 162.974 58.3182C162.7 58.5833 162.347 58.8035 161.916 58.9787C161.485 59.1539 160.969 59.2415 160.368 59.2415ZM160.83 57.5369C161.417 57.5369 161.919 57.4209 162.335 57.1889C162.757 56.9569 163.076 56.6539 163.294 56.2798C163.517 55.901 163.628 55.4962 163.628 55.0653V53.6591C163.552 53.7348 163.405 53.8059 163.188 53.8722C162.974 53.9337 162.731 53.9882 162.456 54.0355C162.181 54.0781 161.914 54.1184 161.653 54.1562C161.393 54.1894 161.175 54.2178 161 54.2415C160.588 54.2936 160.212 54.3812 159.871 54.5043C159.535 54.6274 159.265 54.8049 159.061 55.0369C158.862 55.2642 158.763 55.5672 158.763 55.946C158.763 56.4716 158.957 56.8693 159.345 57.1392C159.733 57.4044 160.228 57.5369 160.83 57.5369ZM168.58 59V48.0909H170.632V49.8239H170.746C170.945 49.2367 171.295 48.7751 171.797 48.4389C172.304 48.098 172.877 47.9276 173.516 47.9276C173.649 47.9276 173.805 47.9323 173.985 47.9418C174.169 47.9512 174.314 47.9631 174.418 47.9773V50.0085C174.333 49.9848 174.181 49.9588 173.963 49.9304C173.746 49.8973 173.528 49.8807 173.31 49.8807C172.808 49.8807 172.361 49.9872 171.968 50.2003C171.579 50.4086 171.272 50.6998 171.044 51.0739C170.817 51.4432 170.703 51.8646 170.703 52.3381V59H168.58ZM180.567 59.2202C179.492 59.2202 178.566 58.9905 177.79 58.5312C177.018 58.0672 176.421 57.4162 176 56.5781C175.583 55.7353 175.375 54.7481 175.375 53.6165C175.375 52.4991 175.583 51.5142 176 50.6619C176.421 49.8097 177.009 49.1444 177.761 48.6662C178.519 48.188 179.404 47.9489 180.418 47.9489C181.033 47.9489 181.63 48.0507 182.207 48.2543C182.785 48.4579 183.304 48.7775 183.763 49.2131C184.222 49.6487 184.584 50.2145 184.849 50.9105C185.115 51.6018 185.247 52.4422 185.247 53.4318V54.1847H176.575V52.5938H183.166C183.166 52.035 183.053 51.5402 182.825 51.1094C182.598 50.6738 182.278 50.3305 181.866 50.0795C181.459 49.8286 180.981 49.7031 180.432 49.7031C179.835 49.7031 179.314 49.8499 178.869 50.1435C178.429 50.4323 178.088 50.8111 177.847 51.2798C177.61 51.7438 177.491 52.2481 177.491 52.7926V54.0355C177.491 54.7647 177.619 55.3849 177.875 55.8963C178.135 56.4077 178.498 56.7983 178.962 57.0682C179.426 57.3333 179.968 57.4659 180.588 57.4659C180.991 57.4659 181.357 57.4091 181.689 57.2955C182.02 57.1771 182.307 57.0019 182.548 56.7699C182.79 56.5379 182.974 56.2514 183.102 55.9105L185.112 56.2727C184.951 56.8646 184.662 57.383 184.246 57.8281C183.834 58.2685 183.315 58.6117 182.69 58.858C182.07 59.0994 181.362 59.2202 180.567 59.2202Z" fill="#DB4C40"/>
<path d="M24 57H44C48.1202 57 50.4721 52.2962 48 49L30 25C27.5279 21.7038 29.8798 17 34 17H74" stroke="white" stroke-width="16"/>
<circle cx="8" cy="57" r="8" fill="#DB4C40"/>
</svg>
