<svg width="196" height="74" viewBox="0 0 196 74" fill="none" xmlns="http://www.w3.org/2000/svg">
<path d="M110.962 33.4079C109.285 35.136 107.211 36 104.739 36C102.267 36 100.193 35.136 98.5158 33.4079C96.8386 31.6799 96 29.5425 96 26.9959C96 24.472 96.8386 22.3461 98.5158 20.618C100.215 18.8672 102.29 17.9918 104.739 17.9918C107.189 17.9918 109.263 18.8672 110.962 20.618C112.662 22.3688 113.511 24.4948 113.511 26.9959C113.511 29.5198 112.662 31.6571 110.962 33.4079ZM101.528 30.3724C102.389 31.2592 103.459 31.7026 104.739 31.7026C106.019 31.7026 107.089 31.2592 107.95 30.3724C108.811 29.4857 109.241 28.3602 109.241 26.9959C109.241 25.6317 108.811 24.5061 107.95 23.6194C107.089 22.7326 106.019 22.2892 104.739 22.2892C103.459 22.2892 102.389 22.7326 101.528 23.6194C100.69 24.5289 100.27 25.6544 100.27 26.9959C100.27 28.3374 100.69 29.4629 101.528 30.3724Z" fill="white"/>
<path d="M125.718 17.9918C127.55 17.9918 129.039 18.6171 130.187 19.8677C131.378 21.141 131.974 22.869 131.974 25.0518V35.5225H127.704V25.5975C127.704 24.4834 127.406 23.6194 126.81 23.0055C126.237 22.3915 125.442 22.0846 124.427 22.0846C123.301 22.0846 122.408 22.4484 121.746 23.176C121.106 23.8809 120.786 24.9268 120.786 26.3138V35.5225H116.515V18.4693H120.786V20.3793C121.801 18.7876 123.445 17.9918 125.718 17.9918Z" fill="white"/>
<path d="M139.56 23.3124C139.56 24.04 140.564 24.6653 142.572 25.1883C143.278 25.3474 143.918 25.5407 144.492 25.7681C145.066 25.9727 145.64 26.2797 146.213 26.689C146.809 27.0755 147.273 27.5985 147.604 28.2578C147.935 28.9172 148.1 29.6789 148.1 30.543C148.1 32.2938 147.46 33.6467 146.18 34.6016C144.9 35.5339 143.322 36 141.447 36C138.048 36 135.731 34.6471 134.495 31.9413L138.203 29.7926C138.71 31.2706 139.791 32.0096 141.447 32.0096C142.969 32.0096 143.731 31.5207 143.731 30.543C143.731 29.8154 142.727 29.1901 140.718 28.6671C139.968 28.4625 139.328 28.2578 138.798 28.0532C138.269 27.8486 137.695 27.553 137.077 27.1664C136.459 26.7572 135.985 26.2456 135.654 25.6317C135.345 24.995 135.19 24.256 135.19 23.4147C135.19 21.7322 135.786 20.4134 136.978 19.4584C138.191 18.4807 139.692 17.9918 141.48 17.9918C142.826 17.9918 144.051 18.3101 145.154 18.9468C146.257 19.5607 147.129 20.4475 147.769 21.6071L144.128 23.6535C143.598 22.4939 142.716 21.9141 141.48 21.9141C140.928 21.9141 140.465 22.0505 140.089 22.3233C139.736 22.5734 139.56 22.9031 139.56 23.3124Z" fill="white"/>
<path d="M152.965 16.4229C152.259 16.4229 151.641 16.1614 151.111 15.6385C150.604 15.0928 150.35 14.4561 150.35 13.7285C150.35 13.0009 150.604 12.3643 151.111 11.8186C151.641 11.2729 152.259 11 152.965 11C153.693 11 154.311 11.2729 154.819 11.8186C155.348 12.3643 155.613 13.0009 155.613 13.7285C155.613 14.4561 155.348 15.0928 154.819 15.6385C154.311 16.1614 153.693 16.4229 152.965 16.4229ZM155.117 35.5225H150.846V18.4693H155.117V35.5225Z" fill="white"/>
<path d="M171.571 20.4816V11.648H175.841V35.5225H171.571V33.5102C170.313 35.1701 168.526 36 166.208 36C163.979 36 162.071 35.136 160.482 33.4079C158.915 31.6571 158.131 29.5198 158.131 26.9959C158.131 24.4948 158.915 22.3688 160.482 20.618C162.071 18.8672 163.979 17.9918 166.208 17.9918C168.526 17.9918 170.313 18.8217 171.571 20.4816ZM163.693 30.4748C164.597 31.3615 165.701 31.8049 167.003 31.8049C168.327 31.8049 169.419 31.3615 170.28 30.4748C171.141 29.5653 171.571 28.4056 171.571 26.9959C171.571 25.5862 171.141 24.4379 170.28 23.5512C169.419 22.6417 168.327 22.1869 167.003 22.1869C165.679 22.1869 164.575 22.6417 163.693 23.5512C162.832 24.4379 162.402 25.5862 162.402 26.9959C162.402 28.4056 162.832 29.5653 163.693 30.4748Z" fill="white"/>
<path d="M195.834 28.8035H183.355C183.907 30.9409 185.462 32.0096 188.022 32.0096C189.655 32.0096 190.891 31.4411 191.73 30.3042L195.172 32.3506C193.539 34.7835 191.134 36 187.956 36C185.22 36 183.024 35.1473 181.369 33.442C179.714 31.7367 178.886 29.588 178.886 26.9959C178.886 24.4493 179.702 22.312 181.336 20.5839C182.947 18.8558 185.043 17.9918 187.625 17.9918C190.075 17.9918 192.072 18.8558 193.617 20.5839C195.206 22.312 196 24.4493 196 26.9959C196 27.4734 195.945 28.0759 195.834 28.8035ZM183.289 25.3929H191.73C191.487 24.2788 190.99 23.4261 190.24 22.8349C189.512 22.2437 188.64 21.9482 187.625 21.9482C186.477 21.9482 185.529 22.2551 184.778 22.869C184.028 23.4602 183.531 24.3015 183.289 25.3929Z" fill="white"/>
<path d="M98.8267 59.1349C98.4384 59.1349 98.1046 58.9976 97.8253 58.723C97.5459 58.4437 97.4062 58.1075 97.4062 57.7145C97.4062 57.3262 97.5459 56.9948 97.8253 56.7202C98.1046 56.4408 98.4384 56.3011 98.8267 56.3011C99.215 56.3011 99.5488 56.4408 99.8281 56.7202C100.107 56.9948 100.247 57.3262 100.247 57.7145C100.247 57.9749 100.181 58.214 100.048 58.4318C99.9205 58.6449 99.75 58.8153 99.5369 58.9432C99.3239 59.071 99.0871 59.1349 98.8267 59.1349ZM111.266 50.7543L109.342 51.0952C109.261 50.849 109.133 50.6146 108.958 50.392C108.788 50.1695 108.556 49.9872 108.262 49.8452C107.969 49.7031 107.602 49.6321 107.161 49.6321C106.56 49.6321 106.058 49.767 105.656 50.0369C105.253 50.3021 105.052 50.6454 105.052 51.0668C105.052 51.4313 105.187 51.7249 105.457 51.9474C105.727 52.17 106.162 52.3523 106.763 52.4943L108.496 52.892C109.5 53.1241 110.248 53.4815 110.741 53.9645C111.233 54.4474 111.479 55.0748 111.479 55.8466C111.479 56.5 111.29 57.0824 110.911 57.5938C110.537 58.1004 110.014 58.4981 109.342 58.7869C108.674 59.0758 107.9 59.2202 107.019 59.2202C105.798 59.2202 104.801 58.9598 104.029 58.4389C103.257 57.9134 102.784 57.1676 102.609 56.2017L104.661 55.8892C104.789 56.4242 105.052 56.8291 105.45 57.1037C105.847 57.3736 106.366 57.5085 107.005 57.5085C107.701 57.5085 108.257 57.3641 108.674 57.0753C109.091 56.7817 109.299 56.4242 109.299 56.0028C109.299 55.6619 109.171 55.3755 108.915 55.1435C108.665 54.9115 108.279 54.7363 107.758 54.6179L105.911 54.2131C104.893 53.9811 104.14 53.6117 103.653 53.1051C103.17 52.5985 102.928 51.9569 102.928 51.1804C102.928 50.5365 103.108 49.973 103.468 49.4901C103.828 49.0071 104.325 48.6307 104.96 48.3608C105.594 48.0862 106.321 47.9489 107.14 47.9489C108.319 47.9489 109.247 48.2045 109.924 48.7159C110.601 49.2225 111.049 49.902 111.266 50.7543ZM118.907 48.0909V49.7955H112.948V48.0909H118.907ZM114.546 45.4773H116.669V55.7969C116.669 56.2088 116.731 56.5189 116.854 56.7273C116.977 56.9309 117.136 57.0705 117.33 57.1463C117.529 57.2173 117.744 57.2528 117.976 57.2528C118.147 57.2528 118.296 57.241 118.424 57.2173C118.551 57.1937 118.651 57.1747 118.722 57.1605L119.105 58.9148C118.982 58.9621 118.807 59.0095 118.58 59.0568C118.353 59.1089 118.069 59.1373 117.728 59.142C117.169 59.1515 116.648 59.0521 116.165 58.8438C115.682 58.6354 115.292 58.3134 114.993 57.8778C114.695 57.4422 114.546 56.8954 114.546 56.2372V45.4773ZM128.166 54.4759V48.0909H130.297V59H128.209V57.1108H128.095C127.844 57.6932 127.442 58.1785 126.888 58.5668C126.339 58.9503 125.654 59.142 124.835 59.142C124.134 59.142 123.514 58.9882 122.974 58.6804C122.439 58.3679 122.018 57.9062 121.71 57.2955C121.407 56.6847 121.256 55.9295 121.256 55.0298V48.0909H123.379V54.7741C123.379 55.5175 123.585 56.1094 123.997 56.5497C124.409 56.9901 124.944 57.2102 125.602 57.2102C126 57.2102 126.395 57.1108 126.788 56.9119C127.186 56.7131 127.515 56.4124 127.776 56.0099C128.041 55.6075 128.171 55.0961 128.166 54.4759ZM137.234 59.2131C136.353 59.2131 135.567 58.9882 134.876 58.5384C134.19 58.0838 133.65 57.4375 133.257 56.5994C132.868 55.7566 132.674 54.7457 132.674 53.5668C132.674 52.3878 132.871 51.3793 133.264 50.5412C133.662 49.7031 134.206 49.0616 134.897 48.6165C135.589 48.1714 136.372 47.9489 137.248 47.9489C137.925 47.9489 138.47 48.0625 138.882 48.2898C139.298 48.5123 139.62 48.7727 139.848 49.071C140.08 49.3693 140.26 49.6321 140.387 49.8594H140.515V44.4545H142.639V59H140.565V57.3026H140.387C140.26 57.5346 140.075 57.7997 139.833 58.098C139.597 58.3963 139.27 58.6567 138.853 58.8793C138.437 59.1018 137.897 59.2131 137.234 59.2131ZM137.703 57.402C138.314 57.402 138.83 57.241 139.251 56.919C139.677 56.5923 139.999 56.1402 140.217 55.5625C140.44 54.9848 140.551 54.3125 140.551 53.5455C140.551 52.7879 140.442 52.125 140.224 51.5568C140.006 50.9886 139.687 50.5459 139.265 50.2287C138.844 49.9115 138.323 49.7528 137.703 49.7528C137.064 49.7528 136.531 49.9186 136.105 50.25C135.679 50.5814 135.357 51.0336 135.139 51.6065C134.926 52.1795 134.819 52.8258 134.819 53.5455C134.819 54.2746 134.928 54.9304 135.146 55.5128C135.364 56.0952 135.686 56.5568 136.112 56.8977C136.543 57.2339 137.073 57.402 137.703 57.402ZM145.67 59V48.0909H147.793V59H145.67ZM146.742 46.4077C146.373 46.4077 146.056 46.2846 145.79 46.0384C145.53 45.7874 145.4 45.4891 145.4 45.1435C145.4 44.7931 145.53 44.4948 145.79 44.2486C146.056 43.9976 146.373 43.8722 146.742 43.8722C147.112 43.8722 147.426 43.9976 147.687 44.2486C147.952 44.4948 148.085 44.7931 148.085 45.1435C148.085 45.4891 147.952 45.7874 147.687 46.0384C147.426 46.2846 147.112 46.4077 146.742 46.4077ZM155.245 59.2202C154.223 59.2202 153.33 58.9858 152.568 58.517C151.806 58.0483 151.214 57.3925 150.792 56.5497C150.371 55.7069 150.16 54.7221 150.16 53.5952C150.16 52.4635 150.371 51.474 150.792 50.6264C151.214 49.7789 151.806 49.1207 152.568 48.652C153.33 48.1832 154.223 47.9489 155.245 47.9489C156.268 47.9489 157.161 48.1832 157.923 48.652C158.685 49.1207 159.277 49.7789 159.699 50.6264C160.12 51.474 160.331 52.4635 160.331 53.5952C160.331 54.7221 160.12 55.7069 159.699 56.5497C159.277 57.3925 158.685 58.0483 157.923 58.517C157.161 58.9858 156.268 59.2202 155.245 59.2202ZM155.252 57.4375C155.915 57.4375 156.465 57.2623 156.9 56.9119C157.336 56.5616 157.658 56.0952 157.866 55.5128C158.079 54.9304 158.186 54.2888 158.186 53.5881C158.186 52.892 158.079 52.2528 157.866 51.6705C157.658 51.0833 157.336 50.6122 156.9 50.2571C156.465 49.902 155.915 49.7244 155.252 49.7244C154.585 49.7244 154.031 49.902 153.591 50.2571C153.155 50.6122 152.831 51.0833 152.618 51.6705C152.409 52.2528 152.305 52.892 152.305 53.5881C152.305 54.2888 152.409 54.9304 152.618 55.5128C152.831 56.0952 153.155 56.5616 153.591 56.9119C154.031 57.2623 154.585 57.4375 155.252 57.4375Z" fill="#6CEABD"/>
<path d="M24 57H44C48.1202 57 50.4721 52.2962 48 49L30 25C27.5279 21.7038 29.8798 17 34 17H74" stroke="white" stroke-width="16"/>
<circle cx="8" cy="57" r="8" fill="#6CEABD"/>
</svg>
