<svg width="143" height="54" viewBox="0 0 143 54" fill="none" xmlns="http://www.w3.org/2000/svg">
<path d="M80.9185 24.3517C79.6946 25.6127 78.1808 26.2432 76.3772 26.2432C74.5735 26.2432 73.0598 25.6127 71.8359 24.3517C70.612 23.0907 70 21.531 70 19.6727C70 17.8309 70.612 16.2796 71.8359 15.0185C73.0759 13.7409 74.5896 13.1021 76.3772 13.1021C78.1647 13.1021 79.6785 13.7409 80.9185 15.0185C82.1585 16.2962 82.7785 17.8475 82.7785 19.6727C82.7785 21.5144 82.1585 23.0741 80.9185 24.3517ZM74.034 22.1366C74.6621 22.7837 75.4431 23.1073 76.3772 23.1073C77.3112 23.1073 78.0923 22.7837 78.7203 22.1366C79.3484 21.4895 79.6624 20.6682 79.6624 19.6727C79.6624 18.6772 79.3484 17.8558 78.7203 17.2087C78.0923 16.5616 77.3112 16.2381 76.3772 16.2381C75.4431 16.2381 74.6621 16.5616 74.034 17.2087C73.4221 17.8724 73.1161 18.6937 73.1161 19.6727C73.1161 20.6516 73.4221 21.473 74.034 22.1366Z" fill="white"/>
<path d="M91.686 13.1021C93.0227 13.1021 94.1097 13.5584 94.9471 14.471C95.8167 15.4002 96.2515 16.6612 96.2515 18.254V25.8948H93.1354V18.6523C93.1354 17.8392 92.918 17.2087 92.4832 16.7607C92.0645 16.3127 91.4847 16.0888 90.744 16.0888C89.9227 16.0888 89.2704 16.3542 88.7873 16.8852C88.3203 17.3995 88.0868 18.1628 88.0868 19.1749V25.8948H84.9707V13.4506H88.0868V14.8443C88.8276 13.6829 90.0273 13.1021 91.686 13.1021Z" fill="white"/>
<path d="M101.787 16.9847C101.787 17.5157 102.52 17.972 103.985 18.3536C104.5 18.4697 104.967 18.6108 105.386 18.7767C105.805 18.926 106.223 19.15 106.642 19.4487C107.077 19.7308 107.415 20.1124 107.657 20.5936C107.898 21.0747 108.019 21.6306 108.019 22.2611C108.019 23.5387 107.552 24.5259 106.618 25.2228C105.684 25.9031 104.533 26.2432 103.164 26.2432C100.684 26.2432 98.9928 25.256 98.091 23.2815L100.796 21.7135C101.167 22.792 101.956 23.3313 103.164 23.3313C104.275 23.3313 104.83 22.9746 104.83 22.2611C104.83 21.7301 104.098 21.2738 102.632 20.8922C102.085 20.7429 101.618 20.5936 101.231 20.4442C100.845 20.2949 100.426 20.0792 99.9751 19.7971C99.5242 19.4985 99.178 19.1251 98.9364 18.6772C98.711 18.2126 98.5982 17.6733 98.5982 17.0594C98.5982 15.8316 99.033 14.8692 99.9027 14.1723C100.788 13.4589 101.883 13.1021 103.188 13.1021C104.17 13.1021 105.064 13.3344 105.869 13.799C106.674 14.247 107.31 14.8941 107.778 15.7403L105.12 17.2336C104.734 16.3874 104.09 15.9643 103.188 15.9643C102.785 15.9643 102.447 16.0639 102.173 16.263C101.916 16.4455 101.787 16.6861 101.787 16.9847Z" fill="white"/>
<path d="M111.569 11.9573C111.054 11.9573 110.603 11.7665 110.216 11.3848C109.846 10.9866 109.661 10.522 109.661 9.99108C109.661 9.46012 109.846 8.99554 110.216 8.59732C110.603 8.19911 111.054 8 111.569 8C112.1 8 112.551 8.19911 112.922 8.59732C113.308 8.99554 113.502 9.46012 113.502 9.99108C113.502 10.522 113.308 10.9866 112.922 11.3848C112.551 11.7665 112.1 11.9573 111.569 11.9573ZM113.139 25.8948H110.023V13.4506H113.139V25.8948Z" fill="white"/>
<path d="M125.146 14.919V8.47288H128.263V25.8948H125.146V24.4264C124.229 25.6376 122.924 26.2432 121.233 26.2432C119.607 26.2432 118.214 25.6127 117.054 24.3517C115.911 23.0741 115.339 21.5144 115.339 19.6727C115.339 17.8475 115.911 16.2962 117.054 15.0185C118.214 13.7409 119.607 13.1021 121.233 13.1021C122.924 13.1021 124.229 13.7078 125.146 14.919ZM119.397 22.2113C120.058 22.8584 120.863 23.182 121.813 23.182C122.779 23.182 123.576 22.8584 124.204 22.2113C124.832 21.5476 125.146 20.7014 125.146 19.6727C125.146 18.644 124.832 17.8061 124.204 17.159C123.576 16.4953 122.779 16.1634 121.813 16.1634C120.847 16.1634 120.041 16.4953 119.397 17.159C118.769 17.8061 118.455 18.644 118.455 19.6727C118.455 20.7014 118.769 21.5476 119.397 22.2113Z" fill="white"/>
<path d="M142.852 20.9918H133.745C134.148 22.5515 135.283 23.3313 137.151 23.3313C138.343 23.3313 139.245 22.9165 139.857 22.0869L142.369 23.5802C141.177 25.3556 139.422 26.2432 137.103 26.2432C135.106 26.2432 133.504 25.621 132.296 24.3766C131.088 23.1322 130.484 21.5642 130.484 19.6727C130.484 17.8144 131.08 16.2547 132.272 14.9937C133.447 13.7326 134.977 13.1021 136.862 13.1021C138.649 13.1021 140.106 13.7326 141.234 14.9937C142.393 16.2547 142.973 17.8144 142.973 19.6727C142.973 20.0211 142.933 20.4608 142.852 20.9918ZM133.697 18.5029H139.857C139.68 17.6899 139.317 17.0677 138.77 16.6363C138.238 16.2049 137.602 15.9892 136.862 15.9892C136.024 15.9892 135.332 16.2132 134.784 16.6612C134.237 17.0926 133.874 17.7065 133.697 18.5029Z" fill="white"/>
<path d="M72.0627 43.7196C71.7794 43.7196 71.5358 43.6194 71.332 43.419C71.1281 43.2151 71.0262 42.9698 71.0262 42.683C71.0262 42.3997 71.1281 42.1578 71.332 41.9574C71.5358 41.7536 71.7794 41.6517 72.0627 41.6517C72.3461 41.6517 72.5896 41.7536 72.7935 41.9574C72.9974 42.1578 73.0993 42.3997 73.0993 42.683C73.0993 42.8731 73.0509 43.0475 72.9542 43.2065C72.8609 43.362 72.7365 43.4863 72.581 43.5796C72.4255 43.6729 72.2528 43.7196 72.0627 43.7196ZM81.1403 37.6039L79.7358 37.8527C79.677 37.673 79.5837 37.502 79.4559 37.3396C79.3315 37.1772 79.1622 37.0442 78.948 36.9405C78.7338 36.8369 78.466 36.7851 78.1447 36.7851C77.7059 36.7851 77.3396 36.8835 77.0459 37.0805C76.7522 37.274 76.6054 37.5245 76.6054 37.832C76.6054 38.098 76.7039 38.3122 76.9008 38.4746C77.0978 38.637 77.4156 38.77 77.8544 38.8737L79.119 39.1639C79.8515 39.3332 80.3974 39.5941 80.7568 39.9465C81.1161 40.299 81.2958 40.7568 81.2958 41.32C81.2958 41.7968 81.1576 42.2218 80.8812 42.5949C80.6082 42.9646 80.2264 43.2548 79.7358 43.4656C79.2486 43.6764 78.6837 43.7818 78.041 43.7818C77.1496 43.7818 76.4223 43.5917 75.8591 43.2117C75.2959 42.8281 74.9504 42.2839 74.8225 41.5791L76.3204 41.3511C76.4136 41.7415 76.6054 42.0369 76.8956 42.2373C77.1859 42.4342 77.5642 42.5327 78.0307 42.5327C78.5386 42.5327 78.9445 42.4273 79.2486 42.2166C79.5527 42.0024 79.7047 41.7415 79.7047 41.434C79.7047 41.1852 79.6114 40.9762 79.4248 40.8069C79.2417 40.6376 78.9601 40.5097 78.58 40.4233L77.2325 40.1279C76.4897 39.9586 75.9403 39.6891 75.5844 39.3194C75.232 38.9497 75.0558 38.4815 75.0558 37.9149C75.0558 37.445 75.1871 37.0338 75.4497 36.6814C75.7122 36.329 76.075 36.0543 76.538 35.8573C77.001 35.657 77.5314 35.5568 78.1291 35.5568C78.9895 35.5568 79.6667 35.7433 80.1608 36.1165C80.6548 36.4862 80.9814 36.982 81.1403 37.6039ZM86.7156 35.6604V36.9043H82.3673V35.6604H86.7156ZM83.5334 33.7532H85.0831V41.2837C85.0831 41.5843 85.128 41.8106 85.2178 41.9626C85.3077 42.1112 85.4234 42.2131 85.5651 42.2684C85.7102 42.3202 85.8674 42.3461 86.0367 42.3461C86.1611 42.3461 86.2699 42.3375 86.3632 42.3202C86.4565 42.303 86.5291 42.2891 86.5809 42.2788L86.8607 43.5589C86.7709 43.5935 86.6431 43.628 86.4772 43.6626C86.3114 43.7006 86.1041 43.7213 85.8553 43.7247C85.4476 43.7317 85.0675 43.6591 84.7151 43.5071C84.3627 43.355 84.0776 43.1201 83.8599 42.8022C83.6423 42.4843 83.5334 42.0853 83.5334 41.605V33.7532ZM93.4726 40.3197V35.6604H95.0274V43.6211H93.5037V42.2425H93.4208C93.2377 42.6675 92.944 43.0216 92.5397 43.3049C92.1389 43.5848 91.6397 43.7247 91.0419 43.7247C90.5306 43.7247 90.0779 43.6125 89.684 43.3879C89.2936 43.1598 88.9861 42.823 88.7615 42.3772C88.5404 41.9315 88.4298 41.3804 88.4298 40.7239V35.6604H89.9795V40.5374C89.9795 41.0798 90.1298 41.5117 90.4304 41.833C90.731 42.1544 91.1214 42.315 91.6017 42.315C91.8919 42.315 92.1804 42.2425 92.4672 42.0974C92.7574 41.9523 92.9975 41.7328 93.1876 41.4392C93.3811 41.1455 93.4761 40.7723 93.4726 40.3197ZM100.09 43.7766C99.447 43.7766 98.8735 43.6125 98.369 43.2842C97.868 42.9525 97.4741 42.4809 97.1874 41.8693C96.904 41.2543 96.7624 40.5166 96.7624 39.6563C96.7624 38.796 96.9058 38.06 97.1925 37.4485C97.4828 36.8369 97.8801 36.3687 98.3846 36.0439C98.889 35.7191 99.4608 35.5568 100.1 35.5568C100.594 35.5568 100.991 35.6397 101.292 35.8055C101.596 35.9679 101.831 36.1579 101.997 36.3756C102.166 36.5933 102.298 36.7851 102.391 36.9509H102.484V33.0068H104.034V43.6211H102.52V42.3824H102.391C102.298 42.5517 102.163 42.7452 101.987 42.9629C101.814 43.1806 101.575 43.3706 101.271 43.533C100.967 43.6954 100.573 43.7766 100.09 43.7766ZM100.432 42.455C100.877 42.455 101.254 42.3375 101.562 42.1026C101.873 41.8641 102.108 41.5342 102.266 41.1126C102.429 40.6911 102.51 40.2005 102.51 39.6407C102.51 39.0879 102.431 38.6042 102.272 38.1896C102.113 37.775 101.879 37.4519 101.572 37.2204C101.264 36.9889 100.884 36.8732 100.432 36.8732C99.9653 36.8732 99.5766 36.9941 99.2656 37.236C98.9547 37.4778 98.7197 37.8078 98.5608 38.2259C98.4053 38.6439 98.3276 39.1156 98.3276 39.6407C98.3276 40.1728 98.407 40.6514 98.566 41.0764C98.7249 41.5014 98.9599 41.8382 99.2708 42.087C99.5852 42.3323 99.9722 42.455 100.432 42.455ZM106.245 43.6211V35.6604H107.795V43.6211H106.245ZM107.028 34.4321C106.759 34.4321 106.527 34.3423 106.334 34.1626C106.144 33.9795 106.049 33.7618 106.049 33.5096C106.049 33.2539 106.144 33.0362 106.334 32.8565C106.527 32.6734 106.759 32.5819 107.028 32.5819C107.298 32.5819 107.527 32.6734 107.717 32.8565C107.911 33.0362 108.008 33.2539 108.008 33.5096C108.008 33.7618 107.911 33.9795 107.717 34.1626C107.527 34.3423 107.298 34.4321 107.028 34.4321ZM113.233 43.7818C112.487 43.7818 111.836 43.6107 111.279 43.2687C110.723 42.9266 110.291 42.4481 109.984 41.833C109.676 41.218 109.522 40.4994 109.522 39.677C109.522 38.8512 109.676 38.1291 109.984 37.5106C110.291 36.8922 110.723 36.4119 111.279 36.0698C111.836 35.7278 112.487 35.5568 113.233 35.5568C113.979 35.5568 114.631 35.7278 115.187 36.0698C115.743 36.4119 116.175 36.8922 116.483 37.5106C116.79 38.1291 116.944 38.8512 116.944 39.677C116.944 40.4994 116.79 41.218 116.483 41.833C116.175 42.4481 115.743 42.9266 115.187 43.2687C114.631 43.6107 113.979 43.7818 113.233 43.7818ZM113.238 42.4809C113.722 42.4809 114.123 42.3531 114.441 42.0974C114.759 41.8417 114.994 41.5014 115.146 41.0764C115.301 40.6514 115.379 40.1832 115.379 39.6718C115.379 39.1639 115.301 38.6975 115.146 38.2725C114.994 37.8441 114.759 37.5003 114.441 37.2411C114.123 36.982 113.722 36.8524 113.238 36.8524C112.751 36.8524 112.347 36.982 112.026 37.2411C111.708 37.5003 111.471 37.8441 111.316 38.2725C111.163 38.6975 111.087 39.1639 111.087 39.6718C111.087 40.1832 111.163 40.6514 111.316 41.0764C111.471 41.5014 111.708 41.8417 112.026 42.0974C112.347 42.3531 112.751 42.4809 113.238 42.4809Z" fill="#6CEABD"/>
<g clip-path="url(#clip0_421_1168)">
<path d="M17.5156 41.5954H32.1102C35.1169 41.5954 36.8331 38.1629 35.0291 35.7576L21.894 18.2441C20.09 15.8388 21.8063 12.4062 24.8129 12.4062H54.0021" stroke="white" stroke-width="11.6757"/>
<circle cx="5.83784" cy="41.5956" r="5.83784" fill="#6CEABD"/>
</g>
<defs>
<clipPath id="clip0_421_1168">
<rect width="54" height="54" fill="white"/>
</clipPath>
</defs>
</svg>
