<svg width="196" height="74" viewBox="0 0 196 74" fill="none" xmlns="http://www.w3.org/2000/svg">
<path d="M110.962 33.4079C109.285 35.136 107.211 36 104.739 36C102.267 36 100.193 35.136 98.5158 33.4079C96.8386 31.6799 96 29.5425 96 26.9959C96 24.472 96.8386 22.3461 98.5158 20.618C100.215 18.8672 102.29 17.9918 104.739 17.9918C107.189 17.9918 109.263 18.8672 110.962 20.618C112.662 22.3688 113.511 24.4948 113.511 26.9959C113.511 29.5198 112.662 31.6571 110.962 33.4079ZM101.528 30.3724C102.389 31.2592 103.459 31.7026 104.739 31.7026C106.019 31.7026 107.089 31.2592 107.95 30.3724C108.811 29.4857 109.241 28.3602 109.241 26.9959C109.241 25.6317 108.811 24.5061 107.95 23.6194C107.089 22.7326 106.019 22.2892 104.739 22.2892C103.459 22.2892 102.389 22.7326 101.528 23.6194C100.69 24.5289 100.27 25.6544 100.27 26.9959C100.27 28.3374 100.69 29.4629 101.528 30.3724Z" fill="white"/>
<path d="M125.718 17.9918C127.55 17.9918 129.039 18.6171 130.187 19.8677C131.378 21.141 131.974 22.869 131.974 25.0518V35.5225H127.704V25.5975C127.704 24.4834 127.406 23.6194 126.81 23.0055C126.237 22.3915 125.442 22.0846 124.427 22.0846C123.301 22.0846 122.408 22.4484 121.746 23.176C121.106 23.8809 120.786 24.9268 120.786 26.3138V35.5225H116.515V18.4693H120.786V20.3793C121.801 18.7876 123.445 17.9918 125.718 17.9918Z" fill="white"/>
<path d="M139.56 23.3124C139.56 24.04 140.564 24.6653 142.572 25.1883C143.278 25.3474 143.918 25.5407 144.492 25.7681C145.066 25.9727 145.64 26.2797 146.213 26.689C146.809 27.0755 147.273 27.5985 147.604 28.2578C147.935 28.9172 148.1 29.6789 148.1 30.543C148.1 32.2938 147.46 33.6467 146.18 34.6016C144.9 35.5339 143.322 36 141.447 36C138.048 36 135.731 34.6471 134.495 31.9413L138.203 29.7926C138.71 31.2706 139.791 32.0096 141.447 32.0096C142.969 32.0096 143.731 31.5207 143.731 30.543C143.731 29.8154 142.727 29.1901 140.718 28.6671C139.968 28.4625 139.328 28.2578 138.798 28.0532C138.269 27.8486 137.695 27.553 137.077 27.1664C136.459 26.7572 135.985 26.2456 135.654 25.6317C135.345 24.995 135.19 24.256 135.19 23.4147C135.19 21.7322 135.786 20.4134 136.978 19.4584C138.191 18.4807 139.692 17.9918 141.48 17.9918C142.826 17.9918 144.051 18.3101 145.154 18.9468C146.257 19.5607 147.129 20.4475 147.769 21.6071L144.128 23.6535C143.598 22.4939 142.716 21.9141 141.48 21.9141C140.928 21.9141 140.465 22.0505 140.089 22.3233C139.736 22.5734 139.56 22.9031 139.56 23.3124Z" fill="white"/>
<path d="M152.965 16.4229C152.259 16.4229 151.641 16.1614 151.111 15.6385C150.604 15.0928 150.35 14.4561 150.35 13.7285C150.35 13.0009 150.604 12.3643 151.111 11.8186C151.641 11.2729 152.259 11 152.965 11C153.693 11 154.311 11.2729 154.819 11.8186C155.348 12.3643 155.613 13.0009 155.613 13.7285C155.613 14.4561 155.348 15.0928 154.819 15.6385C154.311 16.1614 153.693 16.4229 152.965 16.4229ZM155.117 35.5225H150.846V18.4693H155.117V35.5225Z" fill="white"/>
<path d="M171.571 20.4816V11.648H175.841V35.5225H171.571V33.5102C170.313 35.1701 168.526 36 166.208 36C163.979 36 162.071 35.136 160.482 33.4079C158.915 31.6571 158.131 29.5198 158.131 26.9959C158.131 24.4948 158.915 22.3688 160.482 20.618C162.071 18.8672 163.979 17.9918 166.208 17.9918C168.526 17.9918 170.313 18.8217 171.571 20.4816ZM163.693 30.4748C164.597 31.3615 165.701 31.8049 167.003 31.8049C168.327 31.8049 169.419 31.3615 170.28 30.4748C171.141 29.5653 171.571 28.4056 171.571 26.9959C171.571 25.5862 171.141 24.4379 170.28 23.5512C169.419 22.6417 168.327 22.1869 167.003 22.1869C165.679 22.1869 164.575 22.6417 163.693 23.5512C162.832 24.4379 162.402 25.5862 162.402 26.9959C162.402 28.4056 162.832 29.5653 163.693 30.4748Z" fill="white"/>
<path d="M195.834 28.8035H183.355C183.907 30.9409 185.462 32.0096 188.022 32.0096C189.655 32.0096 190.891 31.4411 191.73 30.3042L195.172 32.3506C193.539 34.7835 191.134 36 187.956 36C185.22 36 183.024 35.1473 181.369 33.442C179.714 31.7367 178.886 29.588 178.886 26.9959C178.886 24.4493 179.702 22.312 181.336 20.5839C182.947 18.8558 185.043 17.9918 187.625 17.9918C190.075 17.9918 192.072 18.8558 193.617 20.5839C195.206 22.312 196 24.4493 196 26.9959C196 27.4734 195.945 28.0759 195.834 28.8035ZM183.289 25.3929H191.73C191.487 24.2788 190.99 23.4261 190.24 22.8349C189.512 22.2437 188.64 21.9482 187.625 21.9482C186.477 21.9482 185.529 22.2551 184.778 22.869C184.028 23.4602 183.531 24.3015 183.289 25.3929Z" fill="white"/>
<path d="M98.8267 59.1349C98.4384 59.1349 98.1046 58.9976 97.8253 58.723C97.5459 58.4437 97.4062 58.1075 97.4062 57.7145C97.4062 57.3262 97.5459 56.9948 97.8253 56.7202C98.1046 56.4408 98.4384 56.3011 98.8267 56.3011C99.215 56.3011 99.5488 56.4408 99.8281 56.7202C100.107 56.9948 100.247 57.3262 100.247 57.7145C100.247 57.9749 100.181 58.214 100.048 58.4318C99.9205 58.6449 99.75 58.8153 99.5369 58.9432C99.3239 59.071 99.0871 59.1349 98.8267 59.1349ZM103.092 59V48.0909H105.144V49.8239H105.258C105.457 49.2367 105.807 48.7751 106.309 48.4389C106.816 48.098 107.388 47.9276 108.028 47.9276C108.16 47.9276 108.317 47.9323 108.496 47.9418C108.681 47.9512 108.826 47.9631 108.93 47.9773V50.0085C108.844 49.9848 108.693 49.9588 108.475 49.9304C108.257 49.8973 108.04 49.8807 107.822 49.8807C107.32 49.8807 106.872 49.9872 106.479 50.2003C106.091 50.4086 105.783 50.6998 105.556 51.0739C105.329 51.4432 105.215 51.8646 105.215 52.3381V59H103.092ZM115.078 59.2202C114.004 59.2202 113.078 58.9905 112.301 58.5312C111.53 58.0672 110.933 57.4162 110.512 56.5781C110.095 55.7353 109.887 54.7481 109.887 53.6165C109.887 52.4991 110.095 51.5142 110.512 50.6619C110.933 49.8097 111.52 49.1444 112.273 48.6662C113.031 48.188 113.916 47.9489 114.929 47.9489C115.545 47.9489 116.141 48.0507 116.719 48.2543C117.297 48.4579 117.815 48.7775 118.275 49.2131C118.734 49.6487 119.096 50.2145 119.361 50.9105C119.626 51.6018 119.759 52.4422 119.759 53.4318V54.1847H111.087V52.5938H117.678C117.678 52.035 117.564 51.5402 117.337 51.1094C117.11 50.6738 116.79 50.3305 116.378 50.0795C115.971 49.8286 115.493 49.7031 114.944 49.7031C114.347 49.7031 113.826 49.8499 113.381 50.1435C112.941 50.4323 112.6 50.8111 112.358 51.2798C112.122 51.7438 112.003 52.2481 112.003 52.7926V54.0355C112.003 54.7647 112.131 55.3849 112.387 55.8963C112.647 56.4077 113.009 56.7983 113.473 57.0682C113.937 57.3333 114.48 57.4659 115.1 57.4659C115.502 57.4659 115.869 57.4091 116.201 57.2955C116.532 57.1771 116.819 57.0019 117.06 56.7699C117.301 56.5379 117.486 56.2514 117.614 55.9105L119.624 56.2727C119.463 56.8646 119.174 57.383 118.757 57.8281C118.346 58.2685 117.827 58.6117 117.202 58.858C116.582 59.0994 115.874 59.2202 115.078 59.2202ZM122.115 63.0909V48.0909H124.189V49.8594H124.366C124.49 49.6321 124.667 49.3693 124.899 49.071C125.131 48.7727 125.453 48.5123 125.865 48.2898C126.277 48.0625 126.821 47.9489 127.499 47.9489C128.379 47.9489 129.165 48.1714 129.857 48.6165C130.548 49.0616 131.09 49.7031 131.483 50.5412C131.881 51.3793 132.08 52.3878 132.08 53.5668C132.08 54.7457 131.883 55.7566 131.49 56.5994C131.097 57.4375 130.557 58.0838 129.871 58.5384C129.184 58.9882 128.401 59.2131 127.52 59.2131C126.857 59.2131 126.315 59.1018 125.893 58.8793C125.477 58.6567 125.15 58.3963 124.913 58.098C124.677 57.7997 124.494 57.5346 124.366 57.3026H124.239V63.0909H122.115ZM124.196 53.5455C124.196 54.3125 124.307 54.9848 124.53 55.5625C124.752 56.1402 125.074 56.5923 125.496 56.919C125.917 57.241 126.433 57.402 127.044 57.402C127.679 57.402 128.209 57.2339 128.635 56.8977C129.061 56.5568 129.383 56.0952 129.601 55.5128C129.823 54.9304 129.935 54.2746 129.935 53.5455C129.935 52.8258 129.826 52.1795 129.608 51.6065C129.395 51.0336 129.073 50.5814 128.642 50.25C128.216 49.9186 127.683 49.7528 127.044 49.7528C126.429 49.7528 125.908 49.9115 125.482 50.2287C125.06 50.5459 124.741 50.9886 124.523 51.5568C124.305 52.125 124.196 52.7879 124.196 53.5455ZM137.634 59.2415C136.942 59.2415 136.317 59.1136 135.759 58.858C135.2 58.5975 134.757 58.2211 134.43 57.7287C134.108 57.2363 133.947 56.6326 133.947 55.9176C133.947 55.3021 134.066 54.7955 134.303 54.3977C134.539 54 134.859 53.6851 135.261 53.4531C135.664 53.2211 136.114 53.0459 136.611 52.9276C137.108 52.8092 137.615 52.7192 138.131 52.6577C138.784 52.5819 139.314 52.5204 139.722 52.473C140.129 52.4209 140.425 52.3381 140.609 52.2244C140.794 52.1108 140.886 51.9261 140.886 51.6705V51.6207C140.886 51.0005 140.711 50.5199 140.361 50.179C140.015 49.8381 139.499 49.6676 138.812 49.6676C138.098 49.6676 137.534 49.8262 137.122 50.1435C136.715 50.456 136.433 50.804 136.277 51.1875L134.281 50.733C134.518 50.0701 134.864 49.535 135.318 49.1278C135.777 48.7159 136.305 48.4176 136.902 48.233C137.499 48.0436 138.126 47.9489 138.784 47.9489C139.22 47.9489 139.681 48.0009 140.169 48.1051C140.661 48.2045 141.121 48.3892 141.547 48.6591C141.978 48.929 142.33 49.3149 142.605 49.8168C142.88 50.3139 143.017 50.9602 143.017 51.7557V59H140.943V57.5085H140.858C140.721 57.7831 140.515 58.053 140.24 58.3182C139.965 58.5833 139.613 58.8035 139.182 58.9787C138.751 59.1539 138.235 59.2415 137.634 59.2415ZM138.095 57.5369C138.682 57.5369 139.184 57.4209 139.601 57.1889C140.022 56.9569 140.342 56.6539 140.56 56.2798C140.782 55.901 140.893 55.4962 140.893 55.0653V53.6591C140.818 53.7348 140.671 53.8059 140.453 53.8722C140.24 53.9337 139.996 53.9882 139.722 54.0355C139.447 54.0781 139.179 54.1184 138.919 54.1562C138.659 54.1894 138.441 54.2178 138.266 54.2415C137.854 54.2936 137.477 54.3812 137.136 54.5043C136.8 54.6274 136.53 54.8049 136.327 55.0369C136.128 55.2642 136.028 55.5672 136.028 55.946C136.028 56.4716 136.223 56.8693 136.611 57.1392C136.999 57.4044 137.494 57.5369 138.095 57.5369ZM145.846 59V48.0909H147.969V59H145.846ZM146.918 46.4077C146.549 46.4077 146.231 46.2846 145.966 46.0384C145.706 45.7874 145.576 45.4891 145.576 45.1435C145.576 44.7931 145.706 44.4948 145.966 44.2486C146.231 43.9976 146.549 43.8722 146.918 43.8722C147.287 43.8722 147.602 43.9976 147.863 44.2486C148.128 44.4948 148.26 44.7931 148.26 45.1435C148.26 45.4891 148.128 45.7874 147.863 46.0384C147.602 46.2846 147.287 46.4077 146.918 46.4077ZM150.826 59V48.0909H152.879V49.8239H152.992C153.191 49.2367 153.541 48.7751 154.043 48.4389C154.55 48.098 155.123 47.9276 155.762 47.9276C155.895 47.9276 156.051 47.9323 156.231 47.9418C156.415 47.9512 156.56 47.9631 156.664 47.9773V50.0085C156.579 49.9848 156.427 49.9588 156.21 49.9304C155.992 49.8973 155.774 49.8807 155.556 49.8807C155.054 49.8807 154.607 49.9872 154.214 50.2003C153.826 50.4086 153.518 50.6998 153.29 51.0739C153.063 51.4432 152.95 51.8646 152.95 52.3381V59H150.826Z" fill="#3777FF"/>
<path d="M24 57H44C48.1202 57 50.4721 52.2962 48 49L30 25C27.5279 21.7038 29.8798 17 34 17H74" stroke="white" stroke-width="16"/>
<circle cx="8" cy="57" r="8" fill="#3777FF"/>
</svg>
