<svg width="55" height="54" viewBox="0 0 55 54" fill="none" xmlns="http://www.w3.org/2000/svg">
<path d="M44.5811 47.4935C55.8993 37.7849 57.2041 20.7393 47.4954 9.42115C45.8294 7.47894 43.9473 5.83159 41.9152 4.48417L21.2434 22.2164L35.2583 22.2877C42.7564 22.3259 46.182 31.6537 40.4908 36.5356L20.934 53.3113C29.0025 55.1654 37.8152 53.2973 44.5811 47.4935Z" fill="#6CEABD"/>
<path d="M13.5524 16.9561L32.6297 0.591752C24.6821 -1.09577 16.066 0.808541 9.42302 6.50688C-1.89514 16.2155 -3.1999 33.2611 6.50875 44.5793C8.08961 46.4222 9.865 47.9997 11.7785 49.3073L32.7999 31.2753L18.785 31.204C11.2869 31.1658 7.86121 21.838 13.5524 16.9561Z" fill="#6CEABD"/>
</svg>
