<svg width="3742" height="3684" viewBox="0 0 3742 3684" fill="none" xmlns="http://www.w3.org/2000/svg">
<path opacity="0.15" fill-rule="evenodd" clip-rule="evenodd" d="M2241.46 70.0798L2018.13 199.023L2142.62 222.706C2206.35 234.831 2220.72 319.643 2164.53 352.084L1918.42 494.179L1878.53 425.099L2101.88 296.152L1977.38 272.469C1913.65 260.344 1899.28 175.531 1955.47 143.091L2201.58 1L2241.46 70.0798ZM2409.24 384.648L2632.58 255.706L2592.69 186.626L2346.58 328.717C2290.4 361.157 2304.76 445.969 2368.5 458.095L2492.99 481.778L2269.65 610.725L2309.53 679.805L2555.65 537.709C2611.84 505.269 2597.47 420.457 2533.73 408.332L2409.24 384.648ZM1772.08 341.082L1548.74 470.025L1673.23 493.708C1736.97 505.834 1751.34 590.646 1695.15 623.086L1449.03 765.181L1409.15 696.101L1632.49 567.155L1508 543.471C1444.26 531.346 1429.89 446.534 1486.08 414.094L1732.19 272.002L1772.08 341.082ZM1939.86 655.648L2163.19 526.705L2123.31 457.626L1877.2 599.717C1821.01 632.157 1835.38 716.969 1899.11 729.095L2023.61 752.778L1800.26 881.725L1840.15 950.804L2086.26 808.709C2142.45 776.269 2128.08 691.457 2064.35 679.331L1939.86 655.648ZM1302.7 612.076L1079.36 741.018L1203.86 764.702C1267.59 776.827 1281.96 861.639 1225.77 894.079L979.655 1036.17L939.772 967.095L1163.11 838.148L1038.62 814.465C974.885 802.339 960.519 717.527 1016.71 685.087L1262.82 542.996L1302.7 612.076ZM1470.47 926.648L1693.8 797.705L1653.92 728.626L1407.81 870.717C1351.62 903.157 1365.99 987.969 1429.73 1000.09L1554.22 1023.78L1330.88 1152.72L1370.76 1221.8L1616.88 1079.71C1673.07 1047.27 1658.7 962.457 1594.96 950.331L1470.47 926.648ZM833.313 883.076L609.977 1012.02L734.469 1035.7C798.206 1047.83 812.573 1132.64 756.385 1165.08L510.269 1307.18L470.386 1238.1L693.728 1109.15L569.236 1085.47C505.499 1073.34 491.133 988.528 547.32 956.087L793.43 813.996L833.313 883.076ZM1001.09 1197.64L1224.43 1068.7L1184.55 999.622L938.437 1141.71C882.249 1174.15 896.615 1258.97 960.353 1271.09L1084.84 1294.77L861.502 1423.72L901.385 1492.8L1147.5 1350.71C1203.69 1318.27 1189.32 1233.45 1125.59 1221.33L1001.09 1197.64ZM363.927 1154.08L140.591 1283.02L265.083 1306.7C328.82 1318.83 343.187 1403.64 286.999 1436.08L40.8832 1578.17L1 1509.1L224.342 1380.15L99.8505 1356.47C36.113 1344.34 21.7466 1259.53 77.9345 1227.09L324.044 1085L363.927 1154.08ZM755.043 1339.7L531.708 1468.64L656.199 1492.33C719.936 1504.45 734.303 1589.26 678.115 1621.7L431.999 1763.8L392.116 1694.72L615.458 1565.77L490.967 1542.09C427.229 1529.96 412.863 1445.15 469.051 1412.71L715.16 1270.62L755.043 1339.7ZM901.074 2108.41L1124.41 1979.47L1084.53 1910.39L838.417 2052.48C782.229 2084.92 796.595 2169.73 860.333 2181.85L984.824 2205.54L761.482 2334.48L801.365 2403.56L1047.48 2261.47C1103.67 2229.03 1089.3 2144.22 1025.57 2132.09L901.074 2108.41ZM733.293 1793.84L509.957 1922.78L634.449 1946.47C698.186 1958.59 712.553 2043.4 656.365 2075.84L410.249 2217.94L370.366 2148.86L593.708 2019.91L469.216 1996.23C405.479 1984.1 391.113 1899.29 447.3 1866.85L693.41 1724.76L733.293 1793.84ZM1370.46 1837.41L1593.79 1708.47L1553.91 1639.39L1307.8 1781.48C1251.61 1813.92 1265.98 1898.73 1329.72 1910.86L1454.21 1934.54L1230.87 2063.49L1270.75 2132.56L1516.87 1990.47C1573.06 1958.03 1558.69 1873.22 1494.95 1861.09L1370.46 1837.41ZM1202.68 1522.84L979.343 1651.78L1103.84 1675.47C1167.57 1687.59 1181.94 1772.4 1125.75 1804.84L879.635 1946.94L839.752 1877.86L1063.09 1748.91L938.602 1725.23C874.865 1713.1 860.499 1628.29 916.686 1595.85L1162.8 1453.76L1202.68 1522.84ZM1839.84 1566.41L2063.17 1437.47L2023.29 1368.39L1777.18 1510.48C1720.99 1542.92 1735.36 1627.73 1799.09 1639.86L1923.59 1663.54L1700.24 1792.49L1740.13 1861.57L1986.24 1719.47C2042.43 1687.03 2028.06 1602.22 1964.33 1590.1L1839.84 1566.41ZM1672.06 1251.84L1448.73 1380.78L1573.22 1404.47C1636.96 1416.59 1651.33 1501.4 1595.14 1533.84L1349.02 1675.94L1309.14 1606.86L1532.48 1477.91L1407.99 1454.23C1344.25 1442.1 1329.88 1357.29 1386.07 1324.85L1632.18 1182.76L1672.06 1251.84ZM2309.22 1295.41L2532.56 1166.47L2492.67 1097.39L2246.56 1239.48C2190.38 1271.92 2204.74 1356.73 2268.48 1368.86L2392.97 1392.54L2169.63 1521.49L2209.51 1590.57L2455.63 1448.47C2511.82 1416.03 2497.45 1331.22 2433.71 1319.1L2309.22 1295.41ZM2141.44 980.847L1918.11 1109.79L2042.6 1133.47C2106.33 1145.6 2120.7 1230.41 2064.51 1262.85L1818.4 1404.95L1778.51 1335.87L2001.86 1206.92L1877.36 1183.24C1813.63 1171.11 1799.26 1086.3 1855.45 1053.86L2101.56 911.767L2141.44 980.847ZM2778.61 1024.41L3001.94 895.47L2962.06 826.39L2715.95 968.481C2659.76 1000.92 2674.13 1085.73 2737.87 1097.86L2862.36 1121.54L2639.02 1250.49L2678.9 1319.57L2925.02 1177.47C2981.2 1145.03 2966.84 1060.22 2903.1 1048.1L2778.61 1024.41ZM2610.83 709.844L2387.49 838.787L2511.98 862.47C2575.72 874.596 2590.09 959.408 2533.9 991.848L2287.78 1133.94L2247.9 1064.86L2471.24 935.917L2346.75 912.234C2283.01 900.108 2268.65 815.296 2324.83 782.856L2570.94 640.765L2610.83 709.844ZM1270.45 2748.17L1493.78 2619.23L1453.9 2550.15L1207.79 2692.24C1151.6 2724.68 1165.97 2809.49 1229.71 2821.62L1354.2 2845.3L1130.86 2974.25L1170.74 3043.33L1416.86 2901.23C1473.04 2868.79 1458.68 2783.98 1394.94 2771.86L1270.45 2748.17ZM1102.67 2433.6L879.332 2562.55L1003.82 2586.23C1067.56 2598.36 1081.93 2683.17 1025.74 2715.61L779.624 2857.7L739.741 2788.62L963.083 2659.68L838.591 2635.99C774.854 2623.87 760.487 2539.06 816.675 2506.62L1062.78 2364.52L1102.67 2433.6ZM1739.83 2477.17L1963.17 2348.23L1923.29 2279.15L1677.18 2421.24C1620.99 2453.68 1635.36 2538.49 1699.09 2550.62L1823.59 2574.3L1600.24 2703.25L1640.13 2772.33L1886.24 2630.23C1942.43 2597.79 1928.06 2512.98 1864.33 2500.86L1739.83 2477.17ZM1572.05 2162.6L1348.72 2291.55L1473.21 2315.23C1536.95 2327.36 1551.31 2412.17 1495.13 2444.61L1249.01 2586.7L1209.13 2517.62L1432.47 2388.68L1307.98 2364.99C1244.24 2352.87 1229.87 2268.06 1286.06 2235.62L1532.17 2093.52L1572.05 2162.6ZM2209.21 2206.18L2432.54 2077.23L2392.66 2008.15L2146.55 2150.25C2090.36 2182.69 2104.73 2267.5 2168.46 2279.62L2292.96 2303.31L2069.61 2432.25L2109.5 2501.33L2355.61 2359.24C2411.8 2326.8 2397.43 2241.99 2333.7 2229.86L2209.21 2206.18ZM2041.44 1891.6L1818.1 2020.55L1942.6 2044.23C2006.33 2056.36 2020.7 2141.17 1964.51 2173.61L1718.4 2315.7L1678.51 2246.62L1901.85 2117.68L1777.36 2093.99C1713.63 2081.87 1699.26 1997.06 1755.45 1964.62L2001.56 1822.52L2041.44 1891.6ZM2678.6 1935.18L2901.93 1806.23L2862.05 1737.15L2615.94 1879.25C2559.75 1911.69 2574.12 1996.5 2637.86 2008.62L2762.35 2032.31L2539 2161.25L2578.89 2230.33L2825 2088.24C2881.19 2055.8 2866.83 1970.99 2803.09 1958.86L2678.6 1935.18ZM2510.82 1620.61L2287.48 1749.55L2411.97 1773.24C2475.71 1785.36 2490.08 1870.17 2433.89 1902.61L2187.77 2044.71L2147.89 1975.63L2371.23 1846.68L2246.74 1823C2183 1810.87 2168.64 1726.06 2224.82 1693.62L2470.93 1551.53L2510.82 1620.61ZM3147.98 1664.18L3371.32 1535.23L3331.43 1466.15L3085.33 1608.25C3029.14 1640.69 3043.5 1725.5 3107.24 1737.62L3231.73 1761.31L3008.39 1890.25L3048.27 1959.33L3294.39 1817.24C3350.58 1784.8 3336.21 1699.99 3272.47 1687.86L3147.98 1664.18ZM2980.2 1349.61L2756.87 1478.55L2881.36 1502.23C2945.09 1514.36 2959.46 1599.17 2903.27 1631.61L2657.16 1773.71L2617.27 1704.63L2840.62 1575.68L2716.13 1552C2652.39 1539.87 2638.02 1455.06 2694.21 1422.62L2940.32 1280.53L2980.2 1349.61ZM1639.81 3387.94L1863.14 3258.99L1823.26 3189.92L1577.15 3332.01C1520.96 3364.45 1535.33 3449.26 1599.07 3461.38L1723.56 3485.07L1500.22 3614.01L1540.1 3683.09L1786.21 3541C1842.4 3508.56 1828.04 3423.75 1764.3 3411.62L1639.81 3387.94ZM1472.03 3073.37L1248.69 3202.31L1373.18 3226C1436.92 3238.12 1451.29 3322.93 1395.1 3355.37L1148.98 3497.47L1109.1 3428.39L1332.44 3299.44L1207.95 3275.76C1144.21 3263.63 1129.85 3178.82 1186.03 3146.38L1432.14 3004.29L1472.03 3073.37ZM2109.19 3116.94L2332.53 2988L2292.64 2918.92L2046.54 3061.01C1990.35 3093.45 2004.71 3178.26 2068.45 3190.39L2192.94 3214.07L1969.6 3343.01L2009.48 3412.09L2255.6 3270C2311.79 3237.56 2297.42 3152.75 2233.68 3140.62L2109.19 3116.94ZM1941.41 2802.37L1718.08 2931.31L1842.57 2955C1906.31 2967.12 1920.67 3051.93 1864.48 3084.37L1618.37 3226.47L1578.48 3157.39L1801.83 3028.44L1677.34 3004.76C1613.6 2992.63 1599.23 2907.82 1655.42 2875.38L1901.53 2733.29L1941.41 2802.37ZM2578.57 2845.94L2801.9 2717L2762.02 2647.92L2515.91 2790.01C2459.72 2822.45 2474.09 2907.26 2537.83 2919.39L2662.32 2943.07L2438.98 3072.02L2478.86 3141.1L2724.98 2999C2781.16 2966.56 2766.8 2881.75 2703.06 2869.63L2578.57 2845.94ZM2410.8 2531.37L2187.46 2660.31L2311.95 2684C2375.69 2696.12 2390.06 2780.93 2333.87 2813.37L2087.75 2955.47L2047.87 2886.39L2271.21 2757.44L2146.72 2733.76C2082.98 2721.63 2068.62 2636.82 2124.81 2604.38L2370.91 2462.29L2410.8 2531.37ZM3047.95 2574.94L3271.29 2446L3231.41 2376.92L2985.3 2519.01C2929.11 2551.45 2943.48 2636.26 3007.21 2648.39L3131.7 2672.07L2908.36 2801.02L2948.25 2870.1L3194.36 2728C3250.55 2695.56 3236.18 2610.75 3172.45 2598.63L3047.95 2574.94ZM2880.17 2260.38L2656.84 2389.32L2781.33 2413C2845.07 2425.13 2859.43 2509.94 2803.25 2542.38L2557.13 2684.48L2517.25 2615.4L2740.59 2486.45L2616.1 2462.77C2552.36 2450.64 2537.99 2365.83 2594.18 2333.39L2840.29 2191.3L2880.17 2260.38ZM3517.34 2303.94L3740.68 2175L3700.79 2105.92L3454.68 2248.01C3398.5 2280.45 3412.86 2365.26 3476.6 2377.39L3601.09 2401.07L3377.75 2530.02L3417.63 2599.1L3663.75 2457C3719.94 2424.56 3705.57 2339.75 3641.83 2327.63L3517.34 2303.94ZM3349.56 1989.37L3126.22 2118.32L3250.72 2142C3314.45 2154.13 3328.82 2238.94 3272.63 2271.38L3026.52 2413.47L2986.63 2344.39L3209.97 2215.45L3085.48 2191.76C3021.75 2179.64 3007.38 2094.83 3063.57 2062.39L3309.68 1920.29L3349.56 1989.37Z" stroke="white"/>
</svg>
