<svg width="3502" height="2935" viewBox="0 0 3502 2935" fill="none" xmlns="http://www.w3.org/2000/svg">
<g opacity="0.05">
<path fill-rule="evenodd" clip-rule="evenodd" d="M728.814 1614.18C710.323 1615.55 700.081 1593.2 713.192 1580.09L1639.66 653.63L1485.21 499.186L469.734 1514.66C344.047 1640.35 442.12 1854.52 619.342 1841.37L911.799 1819.67C930.289 1818.3 940.531 1840.65 927.421 1853.76L0.9414 2780.24L155.385 2934.68L1170.88 1919.19C1296.57 1793.5 1198.49 1579.33 1021.27 1592.48L728.814 1614.18Z" fill="black"/>
<path fill-rule="evenodd" clip-rule="evenodd" d="M1659.97 1364.68C1641.48 1366.05 1631.24 1343.7 1644.35 1330.59L2570.81 404.128L2416.37 249.685L1400.89 1265.16C1275.2 1390.85 1373.28 1605.02 1550.5 1591.87L1842.95 1570.17C1861.45 1568.8 1871.69 1591.14 1858.58 1604.25L932.098 2530.73L1086.54 2685.18L2102.03 1669.68C2227.72 1544 2129.65 1329.83 1952.43 1342.98L1659.97 1364.68Z" fill="black"/>
<path fill-rule="evenodd" clip-rule="evenodd" d="M2591.14 1115.18C2572.65 1116.55 2562.41 1094.2 2575.52 1081.09L3501.98 154.627L3347.54 0.183601L2332.06 1015.66C2206.38 1141.35 2304.45 1355.52 2481.67 1342.37L2774.13 1320.67C2792.62 1319.29 2802.86 1341.64 2789.75 1354.75L1863.27 2281.23L2017.71 2435.68L3033.21 1420.18C3158.89 1294.5 3060.82 1080.33 2883.6 1093.48L2591.14 1115.18Z" fill="black"/>
</g>
</svg>
