<svg width="100" height="100" viewBox="0 0 100 100" fill="none" xmlns="http://www.w3.org/2000/svg">
<g clip-path="url(#clip0_424_587)">
<path d="M49.57 0.0273438C24.2473 0.0273438 25.8284 11.0528 25.8284 11.0528L25.8566 22.4756H50.0215V25.905H16.2586C16.2586 25.905 0.0546875 24.0599 0.0546875 49.7128C0.0546875 75.3666 14.1979 74.4568 14.1979 74.4568H22.6385V62.5524C22.6385 62.5524 22.1835 48.3524 36.5559 48.3524H60.5232C60.5232 48.3524 73.9887 48.5709 73.9887 35.2862V13.3207C73.9887 13.3207 76.0339 0.0273438 49.57 0.0273438ZM36.2454 7.70891C36.8165 7.7084 37.382 7.82094 37.9096 8.0401C38.4373 8.25927 38.9168 8.58075 39.3205 8.98615C39.7243 9.39156 40.0445 9.87292 40.2628 10.4027C40.4811 10.9325 40.5932 11.5003 40.5927 12.0736C40.5932 12.6469 40.4811 13.2147 40.2628 13.7445C40.0445 14.2743 39.7243 14.7557 39.3205 15.1611C38.9168 15.5665 38.4373 15.888 37.9096 16.1071C37.382 16.3263 36.8165 16.4388 36.2454 16.4383C35.6744 16.4388 35.1089 16.3263 34.5812 16.1071C34.0535 15.888 33.5741 15.5665 33.1703 15.1611C32.7665 14.7557 32.4463 14.2743 32.228 13.7445C32.0098 13.2147 31.8977 12.6469 31.8982 12.0736C31.8977 11.5003 32.0098 10.9325 32.228 10.4027C32.4463 9.87292 32.7665 9.39156 33.1703 8.98615C33.5741 8.58075 34.0535 8.25927 34.5812 8.0401C35.1089 7.82094 35.6744 7.7084 36.2454 7.70891Z" fill="#CFD0D0"/>
<path opacity="0.5" d="M50.2918 99.6561C75.6144 99.6561 74.0333 88.6306 74.0333 88.6306L74.0051 77.2082H49.8398V73.7788H83.6027C83.6027 73.7788 99.8066 75.6239 99.8066 49.9702C99.8066 24.3168 85.6634 25.2266 85.6634 25.2266H77.2228V37.1306C77.2228 37.1306 77.6778 51.3306 63.3054 51.3306H39.3381C39.3381 51.3306 25.8726 51.1121 25.8726 64.3972V86.3631C25.8726 86.3631 23.8278 99.6561 50.2914 99.6561H50.2918ZM63.6163 91.9753C63.0452 91.9758 62.4797 91.8632 61.9521 91.6441C61.4244 91.4249 60.945 91.1034 60.5412 90.698C60.1374 90.2926 59.8172 89.8113 59.5989 89.2815C59.3806 88.7517 59.2685 88.1839 59.269 87.6106C59.2685 87.0372 59.3805 86.4694 59.5988 85.9395C59.8171 85.4097 60.1372 84.9283 60.541 84.5228C60.9448 84.1174 61.4243 83.7959 61.952 83.5767C62.4796 83.3575 63.0452 83.245 63.6163 83.2455C64.1873 83.245 64.7528 83.3575 65.2805 83.5767C65.8082 83.7958 66.2876 84.1173 66.6914 84.5227C67.0952 84.9281 67.4154 85.4095 67.6337 85.9393C67.8519 86.469 67.964 87.0368 67.9635 87.6102C67.964 88.1835 67.8519 88.7513 67.6337 89.2811C67.4154 89.8109 67.0952 90.2922 66.6914 90.6976C66.2876 91.103 65.8082 91.4245 65.2805 91.6437C64.7528 91.8629 64.1873 91.9754 63.6163 91.9749V91.9753Z" fill="#CFD0D0"/>
</g>
<defs>
<clipPath id="clip0_424_587">
<path d="M0 40C0 17.9086 17.9086 0 40 0H60C82.0914 0 100 17.9086 100 40V100H0V40Z" fill="white"/>
</clipPath>
</defs>
</svg>
