<svg width="100" height="100" viewBox="0 0 100 100" fill="none" xmlns="http://www.w3.org/2000/svg">
<g clip-path="url(#clip0_424_577)">
<path d="M49.8004 58.6261C54.7038 58.6261 58.6788 54.6511 58.6788 49.7476C58.6788 44.8442 54.7038 40.8691 49.8004 40.8691C44.8969 40.8691 40.9219 44.8442 40.9219 49.7476C40.9219 54.6511 44.8969 58.6261 49.8004 58.6261Z" fill="#111212"/>
<path d="M49.7969 67.9368C76.1081 67.9368 97.4375 59.7928 97.4375 49.7467C97.4375 39.7006 76.1081 31.5566 49.7969 31.5566C23.4857 31.5566 2.15625 39.7006 2.15625 49.7467C2.15625 59.7928 23.4857 67.9368 49.7969 67.9368Z" stroke="#111212" stroke-width="4.33097"/>
<path d="M34.0408 58.8426C47.1964 81.6288 64.914 96.0286 73.6141 91.0056C82.3143 85.9825 78.7025 63.4387 65.5469 40.6525C52.3913 17.8664 34.6737 3.46652 25.9735 8.48956C17.2733 13.5126 20.8852 36.0564 34.0408 58.8426Z" stroke="#111212" stroke-width="4.33097"/>
<path d="M34.0408 40.6539C20.8852 63.44 17.2733 85.9839 25.9735 91.0069C34.6737 96.0299 52.3913 81.6301 65.5469 58.8439C78.7025 36.0578 82.3143 13.514 73.6141 8.49091C64.914 3.46786 47.1964 17.8677 34.0408 40.6539Z" stroke="#111212" stroke-width="4.33097"/>
</g>
<defs>
<clipPath id="clip0_424_577">
<path d="M0 40C0 17.9086 17.9086 0 40 0H60C82.0914 0 100 17.9086 100 40V100H0V40Z" fill="white"/>
</clipPath>
</defs>
</svg>
