<svg width="150" height="100" viewBox="0 0 150 100" fill="none" xmlns="http://www.w3.org/2000/svg">
<path d="M65.9103 35.96C63.3651 33.44 59.9109 32 56.2749 32H36.3678V68H50.0028V45.5H54.366C55.5477 45.5 56.7294 45.95 57.5475 46.85L62.2743 51.53C63.0924 52.34 63.6378 53.51 63.6378 54.68V68H77.2728V52.79C77.2728 49.19 75.8184 45.77 73.2732 43.25L65.9103 35.96ZM136.358 32V45.32C136.358 46.49 135.903 47.66 134.994 48.47L130.268 53.15C129.449 53.96 128.268 54.5 127.086 54.5H120.541C121.905 52.34 122.723 49.82 122.723 47.21V32H109.088V45.32C109.088 46.49 108.633 47.66 107.724 48.47L102.998 53.15C102.179 53.96 100.998 54.5 99.816 54.5H95.4528V32H81.8178V68H101.725C105.361 68 108.815 66.56 111.36 64.04L115.905 59.54V68H128.995C132.631 68 136.085 66.56 138.63 64.04L145.993 56.75C148.538 54.23 149.993 50.81 149.993 47.21V32H136.358ZM0.0078125 45.5H9.09781V68H22.7328V45.5H31.8228V32H0.0078125V45.5Z" fill="#CFD0D0"/>
</svg>
